<svg width="80" height="48" viewBox="0 0 80 48" fill="none" xmlns="http://www.w3.org/2000/svg">
<rect width="80" height="48" rx="8" fill="white"/>
<path d="M49.6988 13.9994C45.1605 13.9994 41.0858 16.3661 41.0858 20.7093C41.0858 25.7112 48.2836 26.0528 48.2836 28.5415C48.2836 29.5907 47.0637 30.5423 45.0141 30.5423C42.0862 30.5423 39.8902 29.2247 39.8902 29.2247L38.963 33.6166C38.963 33.6166 41.4762 34.739 44.8433 34.739C49.8208 34.739 53.7247 32.2746 53.7247 27.8339C53.7247 22.5636 46.5025 22.222 46.5025 19.9041C46.5025 19.0745 47.5029 18.1717 49.5524 18.1717C51.8704 18.1717 53.7735 19.1233 53.7735 19.1233L54.7007 14.8778C54.6763 14.8778 52.6024 13.9994 49.6988 13.9994ZM8.122 14.3166L8 14.951C8 14.951 9.90316 15.2926 11.6355 16.0002C13.8559 16.8053 14.0023 17.2689 14.3927 18.7085L18.4674 34.3974H23.9329L32.3019 14.3166H26.8608L21.4685 27.9803L19.2726 16.3905C19.0774 15.073 18.0526 14.3166 16.7838 14.3166H8.122ZM34.4979 14.3166L30.228 34.3974H35.4251L39.6706 14.3166H34.4979ZM63.4358 14.3166C62.1914 14.3166 61.5326 14.9754 61.0446 16.1465L53.4319 34.3974H58.8731L59.9222 31.3475H66.5589L67.1933 34.3974H72L67.8277 14.3166H63.4358ZM64.1434 19.7577L65.7537 27.2971H61.435L64.1434 19.7577Z" fill="#1434CB"/>
</svg>
