<svg width="80" height="48" viewBox="0 0 80 48" fill="none" xmlns="http://www.w3.org/2000/svg">
<rect width="80" height="48" rx="8" fill="white"/>
<path d="M18.5197 17.9998C18.9518 18.6892 19.1466 19.3993 19.1466 20.2962C19.1466 23.157 16.6184 26.8734 14.5665 29.483H9.87977L8.00012 18.6262L12.1039 18.2499L13.0977 25.9752C14.0262 24.5139 15.1721 22.2175 15.1721 20.6519C15.1721 19.7949 15.0202 19.2112 14.7826 18.7306L18.5197 17.9998Z" fill="#008CFF"/>
<path d="M23.8387 22.7802C24.5939 22.7802 26.4951 22.4465 26.4951 21.4027C26.4951 20.9015 26.1282 20.6515 25.6958 20.6515C24.9395 20.6515 23.9469 21.5276 23.8387 22.7802ZM23.7522 24.8473C23.7522 26.1218 24.4858 26.6218 25.4585 26.6218C26.5176 26.6218 27.5317 26.3718 28.8497 25.7248L28.3533 28.9812C27.4246 29.4195 25.9773 29.712 24.5725 29.712C21.009 29.712 19.7336 27.6244 19.7336 25.0147C19.7336 21.6323 21.8082 18.0407 26.0852 18.0407C28.4401 18.0407 29.7568 19.3151 29.7568 21.0896C29.757 23.9503 25.956 24.8266 23.7522 24.8473Z" fill="#008CFF"/>
<path d="M41.6002 20.5059C41.6002 20.9234 41.5348 21.529 41.4694 21.9247L40.2381 29.4413H36.2421L37.3654 22.551C37.3867 22.3641 37.4522 21.9878 37.4522 21.7791C37.4522 21.2779 37.128 21.1528 36.7383 21.1528C36.2206 21.1528 35.7018 21.3823 35.3562 21.5498L34.0822 29.4414H30.0637L31.8995 18.1878H35.3775L35.4215 19.086C36.2421 18.5641 37.3225 17.9997 38.8554 17.9997C40.8865 17.9995 41.6002 19.002 41.6002 20.5059Z" fill="#008CFF"/>
<path d="M53.4625 19.2726C54.607 18.4801 55.6877 18.0407 57.1775 18.0407C59.2293 18.0407 59.943 19.0432 59.943 20.5471C59.943 20.9646 59.8776 21.5702 59.8125 21.966L58.5825 29.4825H54.5854L55.7303 22.4466C55.7513 22.2585 55.7957 22.0291 55.7957 21.8835C55.7957 21.3192 55.4714 21.1941 55.0816 21.1941C54.5854 21.1941 54.0892 21.4028 53.7208 21.591L52.447 29.4826H48.4511L49.5957 22.4467C49.6167 22.2586 49.6599 22.0292 49.6599 21.8837C49.6599 21.3193 49.3352 21.1942 48.947 21.1942C48.4283 21.1942 47.9105 21.4236 47.5649 21.5911L46.2898 29.4827H42.2727L44.1085 18.2291H47.5439L47.6519 19.1686C48.4511 18.6056 49.5306 18.0411 50.9778 18.0411C52.231 18.0407 53.0512 18.5627 53.4625 19.2726Z" fill="#008CFF"/>
<path d="M67.8946 22.5509C67.8946 21.6322 67.6567 21.0059 66.9445 21.0059C65.3676 21.0059 65.0436 23.699 65.0436 25.0766C65.0436 26.1218 65.3463 26.7686 66.0585 26.7686C67.549 26.7686 67.8946 23.9285 67.8946 22.5509ZM60.9827 24.9103C60.9827 21.3614 62.9264 18.0407 67.3984 18.0407C70.7681 18.0407 72 19.962 72 22.614C72 26.1217 70.0772 29.7543 65.4972 29.7543C62.1059 29.7543 60.9827 27.6035 60.9827 24.9103Z" fill="#008CFF"/>
</svg>
