<svg width="80" height="48" viewBox="0 0 80 48" fill="none" xmlns="http://www.w3.org/2000/svg">
<rect width="80" height="48" rx="8" fill="white"/>
<path d="M58.8929 15.1449L64.2216 14.1966V34.6419H58.8929V15.1449ZM66.6714 15.1449V34.6306H72V14.1966L66.6714 15.1449ZM51.3177 34.6306H56.6463V19.6833H51.3177V34.6306ZM16.1058 21.7944C15.4285 21.7493 13.8705 21.6477 13.8705 20.2478C13.8705 18.5544 16.1171 18.5544 16.9525 18.5544C18.4315 18.5544 20.3507 18.9946 21.7167 19.4011C21.7167 19.4011 22.4844 19.672 23.1279 19.943L23.1843 19.9543V15.3256L23.1053 15.303C21.4909 14.7385 19.6169 14.1966 16.1284 14.1966C10.1224 14.1966 8 17.6964 8 20.6881C8 22.4154 8.7451 26.4796 15.6204 26.9537C16.2074 26.9876 17.7541 27.0779 17.7541 28.5343C17.7541 29.7309 16.4897 30.4422 14.356 30.4422C12.0191 30.4422 9.76116 29.8438 8.38384 29.2794V34.0548C10.4385 34.5967 12.7642 34.8676 15.4849 34.8676C21.3554 34.8676 23.9859 31.5598 23.9859 28.2746C23.9859 24.5491 21.0506 22.1331 16.1058 21.7944ZM48.3147 19.4688C43.3925 19.6269 40.8975 21.8396 40.8975 26.2312V34.6419H46.2713V27.7779C46.2713 25.1474 46.61 24.0185 49.7372 23.9169V19.5365C49.1953 19.4349 48.3147 19.4688 48.3147 19.4688ZM33.8642 19.672C33.7513 19.9655 32.8933 22.3815 30.8273 24.8765V14.1966L25.3293 15.2804V34.6306H30.8273V28.6471C32.4191 31.0405 33.2094 34.6306 33.2094 34.6306H39.7911C39.1364 31.9211 36.2914 26.9311 36.2914 26.9311C38.8428 23.6911 39.9718 20.2365 40.1524 19.6607H33.8642V19.672ZM53.9707 18.2495C55.4158 18.2495 56.6012 17.0754 56.6012 15.6304C56.6012 14.1853 55.4271 12.9999 53.9707 12.9999C52.5257 12.9999 51.3516 14.174 51.3516 15.6304C51.3516 17.0754 52.5257 18.2495 53.9707 18.2495Z" fill="url(#paint0_linear_2004_191516)"/>
<defs>
<linearGradient id="paint0_linear_2004_191516" x1="8.01129" y1="23.9267" x2="72.0036" y2="23.9267" gradientUnits="userSpaceOnUse">
<stop stop-color="#872166"/>
<stop offset="1" stop-color="#4F2455"/>
</linearGradient>
</defs>
</svg>
