<svg width="80" height="48" viewBox="0 0 80 48" fill="none" xmlns="http://www.w3.org/2000/svg">
<rect width="80" height="48" rx="8" fill="#016FD0"/>
<path d="M20.3923 35.157V25.134H31.0048L32.1434 26.6183L33.3197 25.134H71.8404V34.4658C71.8404 34.4658 70.833 35.147 69.668 35.157H48.3382L47.0545 33.5771V35.157H42.8478V32.46C42.8478 32.46 42.2732 32.8364 41.0308 32.8364H39.599V35.157H33.2297L32.0927 33.6409L30.9383 35.157H20.3923Z" fill="white"/>
<path d="M7.99976 17.5786L10.3929 11.9993H14.5316L15.8898 15.1246V11.9993H21.0346L21.8431 14.2581L22.6269 11.9993H45.7218V13.1349C45.7218 13.1349 46.9359 11.9993 48.9311 11.9993L56.4246 12.0255L57.7593 15.1098V11.9993H62.0647L63.2497 13.771V11.9993H67.5946V22.0223H63.2497L62.1141 20.2448V22.0223H55.7884L55.1523 20.4423H53.4517L52.826 22.0223H48.5361C46.8193 22.0223 45.7218 20.9098 45.7218 20.9098V22.0223H39.2537L37.97 20.4423V22.0223H13.9185L13.2828 20.4423H11.5877L10.9565 22.0223H7.99976V17.5786Z" fill="white"/>
<path d="M11.2393 13.2356L8.01147 20.7405H10.113L10.7086 19.2377H14.1709L14.7634 20.7405H16.9112L13.6864 13.2356H11.2393ZM12.4336 14.9822L13.4889 17.6083H11.3751L12.4336 14.9822Z" fill="#016FD0"/>
<path d="M17.1345 20.7385V13.2336L20.1209 13.2447L21.8578 18.0834L23.5532 13.2336H26.5157V20.7385H24.6394V15.2086L22.6506 20.7385H21.0051L19.0107 15.2086V20.7385H17.1345Z" fill="#016FD0"/>
<path d="M27.7986 20.7385V13.2336H33.921V14.9124H29.6946V16.1961H33.8223V17.7761H29.6946V19.1092H33.921V20.7385H27.7986Z" fill="#016FD0"/>
<path d="M35.0076 13.2356V20.7405H36.8838V18.0743H37.6738L39.9234 20.7405H42.2162L39.7475 17.9755C40.7607 17.89 41.8058 17.0205 41.8058 15.6704C41.8058 14.0911 40.5662 13.2356 39.1828 13.2356H35.0076ZM36.8838 14.9143H39.0285C39.543 14.9143 39.9172 15.3168 39.9172 15.7043C39.9172 16.2029 39.4323 16.4943 39.0563 16.4943H36.8838V14.9143Z" fill="#016FD0"/>
<path d="M44.4877 20.7385H42.572V13.2336H44.4877V20.7385Z" fill="#016FD0"/>
<path d="M49.0292 20.7385H48.6157C46.6149 20.7385 45.4001 19.1623 45.4001 17.017C45.4001 14.8186 46.6013 13.2336 49.1279 13.2336H51.2016V15.0111H49.0521C48.0264 15.0111 47.3011 15.8115 47.3011 17.0355C47.3011 18.4889 48.1305 19.0993 49.3254 19.0993H49.8192L49.0292 20.7385Z" fill="#016FD0"/>
<path d="M53.1124 13.2356L49.8845 20.7405H51.986L52.5816 19.2377H56.044L56.6365 20.7405H58.7843L55.5595 13.2356H53.1124ZM54.3066 14.9822L55.362 17.6083H53.2482L54.3066 14.9822Z" fill="#016FD0"/>
<path d="M59.0037 20.7385V13.2336H61.3891L64.4348 17.9489V13.2336H66.3111V20.7385H64.0028L60.8799 15.8999V20.7385H59.0037Z" fill="#016FD0"/>
<path d="M21.6755 33.8733V26.3684H27.798V28.0471H23.5715V29.3309H27.6992V30.9109H23.5715V32.244H27.798V33.8733H21.6755Z" fill="#016FD0"/>
<path d="M51.6755 33.8733V26.3684H57.798V28.0471H53.5715V29.3309H57.6795V30.9109H53.5715V32.244H57.798V33.8733H51.6755Z" fill="#016FD0"/>
<path d="M28.0356 33.8733L31.0166 30.1672L27.9646 26.3684H30.3284L32.146 28.7168L33.9698 26.3684H36.241L33.2291 30.1209L36.2156 33.8733H33.8522L32.0874 31.562L30.3654 33.8733H28.0356Z" fill="#016FD0"/>
<path d="M36.4392 26.3684V33.8733H38.3648V31.5033H40.3398C42.0109 31.5033 43.2776 30.6168 43.2776 28.8927C43.2776 27.4644 42.2841 26.3684 40.5836 26.3684H36.4392ZM38.3648 28.0657H40.4447C40.9846 28.0657 41.3705 28.3965 41.3705 28.9297C41.3705 29.4306 40.9865 29.7938 40.4385 29.7938H38.3648V28.0657Z" fill="#016FD0"/>
<path d="M44.0916 26.3684V33.8733H45.9678V31.2071H46.7578L49.0074 33.8733H51.3002L48.8315 31.1084C49.8447 31.0228 50.8898 30.1533 50.8898 28.8032C50.8898 27.2239 49.6502 26.3684 48.2668 26.3684H44.0916ZM45.9678 28.0471H48.1125C48.627 28.0471 49.0012 28.4496 49.0012 28.8371C49.0012 29.3357 48.5163 29.6271 48.1403 29.6271H45.9678V28.0471Z" fill="#016FD0"/>
<path d="M58.6677 33.8733V32.244H62.4226C62.9782 32.244 63.2188 31.9437 63.2188 31.6144C63.2188 31.2989 62.979 30.98 62.4226 30.98H60.7258C59.2509 30.98 58.4294 30.0814 58.4294 28.7322C58.4294 27.5289 59.1817 26.3684 61.3734 26.3684H65.0271L64.2371 28.057H61.0771C60.4731 28.057 60.2872 28.374 60.2872 28.6767C60.2872 28.9878 60.5169 29.3309 60.9784 29.3309H62.7559C64.4001 29.3309 65.1135 30.2635 65.1135 31.4848C65.1135 32.7979 64.3185 33.8733 62.6664 33.8733H58.6677Z" fill="#016FD0"/>
<path d="M65.5544 33.8733V32.244H69.3093C69.8649 32.244 70.1055 31.9437 70.1055 31.6144C70.1055 31.2989 69.8657 30.98 69.3093 30.98H67.6125C66.1376 30.98 65.3162 30.0814 65.3162 28.7322C65.3162 27.5289 66.0684 26.3684 68.2601 26.3684H71.9138L71.1238 28.057H67.9639C67.3598 28.057 67.1739 28.374 67.1739 28.6767C67.1739 28.9878 67.4037 29.3309 67.8651 29.3309H69.6426C71.2868 29.3309 72.0002 30.2635 72.0002 31.4848C72.0002 32.7979 71.2052 33.8733 69.5531 33.8733H65.5544Z" fill="#016FD0"/>
</svg>
