<svg width="80" height="48" viewBox="0 0 80 48" fill="none" xmlns="http://www.w3.org/2000/svg">
<rect width="80" height="48" rx="8" fill="white"/>
<path d="M44.3265 16.1173H35.6748V31.663H44.3265V16.1173Z" fill="#FF5F00"/>
<path d="M36.2246 23.89C36.2246 20.8687 37.6253 17.9848 39.9874 16.1172C35.7027 12.7389 29.4955 13.4804 26.1172 17.7926C22.7389 22.0772 23.4804 28.2845 27.7926 31.6628C31.3906 34.4918 36.4168 34.4918 40.0149 31.6628C37.6253 29.7952 36.2246 26.9112 36.2246 23.89Z" fill="#EB001B"/>
<path d="M55.9998 23.8901C55.9998 29.3558 51.5778 33.7778 46.1121 33.7778C43.8873 33.7778 41.745 33.0362 40.0146 31.6629C44.2993 28.2846 45.0409 22.0774 41.6626 17.7652C41.1682 17.161 40.6189 16.5842 40.0146 16.1173C44.2993 12.739 50.5341 13.4806 53.8849 17.7927C55.2582 19.523 55.9998 21.6654 55.9998 23.8901Z" fill="#F79E1B"/>
<path d="M55.0653 30.0155V29.6859H55.2026V29.631H54.873V29.6859H55.0104V30.0155H55.0653ZM55.697 30.0155V29.631H55.5872L55.4773 29.9056L55.3674 29.631H55.2576V30.0155H55.34V29.7134L55.4498 29.9606H55.5322L55.6421 29.7134V30.0155H55.697Z" fill="#F79E1B"/>
</svg>
