<svg width="80" height="48" viewBox="0 0 80 48" fill="none" xmlns="http://www.w3.org/2000/svg">
<rect width="80" height="48" rx="8" fill="#9FE870"/>
<path d="M43.6559 17.2037H47.5885L45.6077 31.3612H41.675L43.6559 17.2037ZM38.6746 17.2037L36.0237 25.3603L34.8584 17.2037H32.091L28.5954 25.3312L28.1875 17.2329H24.3423L25.6823 31.3904H28.8575L32.761 22.4181L34.1302 31.3612H37.2472L42.4033 17.2037H38.6746ZM71.7961 25.4477H62.4452C62.5034 27.2829 63.5812 28.5064 65.2126 28.5064C66.4361 28.5064 67.3974 27.8655 68.1548 26.6129L71.33 28.0403C70.1939 30.1669 67.9217 31.5651 65.096 31.5651C61.2508 31.5651 58.6873 28.9725 58.6873 24.8068C58.6873 20.2333 61.6878 16.9998 65.9408 16.9998C69.6696 16.9998 72 19.5051 72 23.4377C72 24.0786 71.9417 24.7486 71.7961 25.4477ZM68.2713 22.7386C68.2713 21.1072 67.3391 20.0585 65.8826 20.0585C64.3678 20.0585 63.086 21.1364 62.7656 22.7386H68.2713ZM12.02 21.4859L8 26.176H15.1953L16.0109 23.962H12.9231L14.8166 21.7772V21.719L13.5931 19.6216H19.0988L14.8166 31.3612H17.7296L22.8858 17.2037H9.57305L12.02 21.4859ZM53.9973 20.0585C55.3955 20.0585 56.619 20.8159 57.6677 22.0977L58.2212 18.1068C57.2308 17.4368 55.8908 17.0289 54.1138 17.0289C50.589 17.0289 48.6081 19.0972 48.6081 21.719C48.6081 23.5251 49.6277 24.6612 51.2881 25.3603L52.0746 25.7099C53.5603 26.3508 53.9681 26.6712 53.9681 27.3412C53.9681 28.0403 53.2981 28.4773 52.2786 28.4773C50.589 28.4773 49.2198 27.6325 48.2003 26.1468L47.6177 30.2251C48.7829 31.1282 50.2977 31.5943 52.2786 31.5943C55.6286 31.5943 57.6969 29.6716 57.6969 26.9625C57.6969 25.1273 56.8812 23.962 54.8421 23.0299L53.9681 22.622C52.7447 22.0977 52.3368 21.7772 52.3368 21.1946C52.366 20.5538 52.9194 20.0585 53.9973 20.0585Z" fill="#163300"/>
</svg>
